<svg viewBox="0 0 128 32" id="is-logo" xmlns="http://www.w3.org/2000/svg"><path d="M121.904 14.84c-.26.284-.436.67-.53 1.156l3.104.004c-.07-.498-.237-.887-.501-1.165a1.318 1.318 0 00-.996-.419c-.459 0-.818.141-1.077.425zm-.891 6.422a4.62 4.62 0 01-1.551-.976 4.28 4.28 0 01-1.003-1.488 4.92 4.92 0 01-.35-1.886c0-.672.12-1.294.355-1.867a4.507 4.507 0 01.99-1.494c.424-.422.93-.752 1.518-.988a5.13 5.13 0 011.942-.354c.705 0 1.331.109 1.878.324a4.67 4.67 0 011.436.88 4.395 4.395 0 011.215 1.879c.257.753.374 1.57.35 2.45l-6.422-.008c.093.521.284.927.572 1.217.287.29.684.436 1.19.437.587 0 1.006-.22 1.253-.66l3.228.005a2.885 2.885 0 01-.592 1.164c-.3.37-.675.694-1.122.972a4.32 4.32 0 01-1.315.57 6.446 6.446 0 01-1.561.173c-.741-.001-1.411-.118-2.011-.35zm-9.852.012a4.713 4.713 0 01-1.56-.984 4.284 4.284 0 01-1.003-1.488 4.873 4.873 0 01-.35-1.869c.001-.671.12-1.294.355-1.867a4.365 4.365 0 011.008-1.493 4.64 4.64 0 011.563-.989c.605-.237 1.279-.355 2.02-.354a5.493 5.493 0 011.737.264c.523.174.976.418 1.357.731.382.313.69.688.925 1.123.234.434.381.913.439 1.434l-3.21-.004c-.094-.406-.24-.716-.44-.93-.2-.216-.482-.323-.847-.323-.517 0-.9.212-1.147.641-.248.429-.372 1.02-.373 1.772-.001.741.127 1.324.385 1.748.259.423.647.635 1.164.636.411 0 .72-.13.927-.39.206-.261.333-.646.38-1.156l3.211.005c0 .544-.11 1.05-.329 1.52a3.69 3.69 0 01-.918 1.225 4.29 4.29 0 01-1.43.814 5.513 5.513 0 01-1.844.293c-.741-.001-1.414-.12-2.02-.359zm-6.525-7.456c.366-.556.769-.95 1.21-1.18.442-.232.95-.347 1.526-.346.247 0 .43.03.548.088l-.004 2.798h-.071c-.988-.164-1.752-.035-2.294.388-.541.422-.813 1.137-.814 2.145l-.005 3.632-3.335-.004.013-8.864 3.175.004-.001 1.339h.052zm-7.611 6.367h-.053a3.59 3.59 0 01-1.193 1.06c-.452.242-.99.363-1.614.362-.54 0-1.011-.086-1.411-.254a2.696 2.696 0 01-.996-.705 3.023 3.023 0 01-.598-1.079 4.51 4.51 0 01-.201-1.39l.008-5.718 3.334.004-.006 4.936c-.002.939.397 1.409 1.197 1.41.435 0 .773-.139 1.015-.416.241-.278.363-.66.363-1.147l.007-4.78 3.334.005-.012 8.864-3.176-.004.002-1.148zm-10.6-1.466c.26-.456.39-1.061.39-1.815.002-.753-.127-1.359-.385-1.817-.258-.458-.646-.687-1.163-.688-.517 0-.9.228-1.148.685-.247.457-.372 1.062-.373 1.816-.001.753.122 1.359.368 1.817.247.457.629.687 1.146.688.517 0 .906-.228 1.165-.686zm-3.17 2.516a4.605 4.605 0 01-1.55-.984 4.345 4.345 0 01-.995-1.487 4.875 4.875 0 01-.35-1.869c0-.672.119-1.295.355-1.868a4.435 4.435 0 01.999-1.493c.43-.422.947-.752 1.553-.989.606-.236 1.285-.354 2.038-.353.753 0 1.432.12 2.037.359.606.239 1.12.57 1.542.993.423.423.749.922.977 1.496.229.574.343 1.197.342 1.869a4.976 4.976 0 01-.347 1.868 4.295 4.295 0 01-.98 1.484 4.515 4.515 0 01-1.546.98c-.606.237-1.285.355-2.038.354-.753-.001-1.432-.121-2.037-.36zm-11.183.098a5.72 5.72 0 01-1.834-.793 3.908 3.908 0 01-1.233-1.331c-.3-.534-.454-1.16-.465-1.878l3.776.005c.057.499.272.867.642 1.105s.86.357 1.472.358c.177 0 .362-.017.556-.051a1.77 1.77 0 00.52-.174c.154-.08.28-.188.38-.321a.77.77 0 00.15-.477.708.708 0 00-.157-.47 1.292 1.292 0 00-.458-.331 4.73 4.73 0 00-.75-.261c-.3-.082-.643-.17-1.031-.263-.53-.128-1.07-.28-1.622-.453a6.504 6.504 0 01-1.508-.689 3.59 3.59 0 01-1.11-1.088c-.287-.441-.43-.991-.43-1.652.001-.707.14-1.309.418-1.807.277-.497.65-.902 1.121-1.215a4.95 4.95 0 011.66-.684 9.02 9.02 0 012.01-.214c.647 0 1.274.07 1.88.21a4.95 4.95 0 011.612.672c.47.308.846.702 1.128 1.183.281.482.428 1.059.438 1.73l-3.651-.005a1.282 1.282 0 00-.467-.809c-.252-.203-.631-.304-1.137-.305-.412 0-.744.08-.997.241-.253.162-.38.37-.38.626 0 .185.064.335.193.452.13.116.32.218.573.305.253.087.564.169.935.245.37.075.79.172 1.26.288.53.128 1.047.282 1.552.463.506.18.958.421 1.358.723.4.302.72.676.96 1.122.24.447.36 1 .359 1.66 0 .684-.146 1.284-.435 1.799-.289.515-.68.946-1.175 1.293-.494.347-1.07.61-1.73.788a7.943 7.943 0 01-2.1.267 9.467 9.467 0 01-2.283-.264zM61.86 13.637c.365-.486.78-.856 1.245-1.11.465-.255 1.015-.382 1.65-.38 1.047 0 1.835.315 2.363.941.528.627.792 1.45.79 2.47l-.008 5.735-3.334-.005.007-4.936c0-.464-.099-.834-.299-1.113-.2-.278-.516-.418-.952-.418-.423 0-.755.158-.997.476-.241.319-.362.721-.363 1.208l-.007 4.78-3.334-.006.013-8.863 3.175.004-.002 1.217h.053zm-7.839 5.038c.26-.457.39-1.062.39-1.815.002-.754-.126-1.36-.385-1.817-.258-.458-.646-.688-1.163-.689-.517 0-.9.228-1.148.685-.247.458-.371 1.063-.372 1.816-.002.753.121 1.359.367 1.817.247.458.628.687 1.146.688.517 0 .906-.227 1.165-.685zm-3.17 2.516a4.612 4.612 0 01-1.55-.985 4.333 4.333 0 01-.995-1.487 4.874 4.874 0 01-.35-1.868c0-.672.119-1.295.355-1.868a4.428 4.428 0 01.999-1.494c.43-.422.947-.752 1.553-.988.606-.237 1.285-.355 2.038-.354.753.001 1.432.121 2.037.36a4.46 4.46 0 011.543.992 4.4 4.4 0 01.976 1.496 4.99 4.99 0 01.342 1.869 4.98 4.98 0 01-.347 1.868 4.293 4.293 0 01-.98 1.485c-.425.416-.94.742-1.546.98-.606.236-1.285.354-2.038.353-.753-.001-1.432-.12-2.037-.36zm-6.508-7.456c.366-.556.77-.95 1.21-1.18.442-.232.95-.347 1.527-.346.247 0 .43.03.547.088l-.004 2.798h-.07c-.988-.164-1.753-.035-2.295.387-.541.422-.813 1.138-.814 2.146l-.005 3.632-3.335-.005.013-8.863 3.176.004-.002 1.339h.052zm-4.425-1.345l-.012 8.864-3.335-.005.013-8.863 3.334.004zm.005-3.562l-.004 2.485-3.333-.005.003-2.485 3.334.005zM18.617 23.77c-3.644-.005-5.388-1.943-5.384-4.387v-.74l4.084.006v.322c-.001.798.414 1.346 1.207 1.347.732.002 1.092-.335 1.093-.904.002-1.615-6.244-1.352-6.238-5.877.003-2.439 1.556-4.564 5.419-4.559 3.47.006 5.192 1.947 5.188 4.385v.795l-4.083-.006v-.455c.001-.656-.338-1.312-1.11-1.313-.615 0-.97.34-.971.886-.003 1.786 6.24 1.337 6.234 5.858-.004 2.441-1.63 4.647-5.439 4.642zm-6.083-11.82l-4.02-.006.005-3.174 4.02.006-.005 3.174zm0 3.532c-.001 1.334-.452 2.085-1.441 2.357 1.035.413 1.437 1.15 1.434 2.723l-.002 2.309-4.047-.033.005-3.017c0-.602-.667-.675-1.217-.862l.003-2.161c.55-.18 1.218-.352 1.22-.829l.003-3.19 4.047.006-.004 2.697zM15.775 0C7.062 0 0 7.035 0 15.714s7.062 15.714 15.774 15.714 15.774-7.035 15.774-15.714S24.486 0 15.774 0z" fill-rule="evenodd"></path></svg>